<mxfile host="Electron" modified="2025-01-02T14:48:52.967Z" agent="Mozilla/5.0 (Windows NT 10.0; Win64; x64) AppleWebKit/537.36 (KHTML, like Gecko) draw.io/23.0.2 Chrome/120.0.6099.109 Electron/28.1.0 Safari/537.36" etag="c5vLC1HFoZjMuuCG4ahx" version="23.0.2" type="device">
  <diagram name="ETLs" id="qsl-yLtg4liw6EHXuBID">
    <mxGraphModel dx="1278" dy="1456" grid="0" gridSize="10" guides="0" tooltips="1" connect="0" arrows="0" fold="1" page="0" pageScale="1" pageWidth="1920" pageHeight="1200" math="0" shadow="0">
      <root>
        <mxCell id="PmAsDYt7ePFWswJWPdAt-0" />
        <mxCell id="PmAsDYt7ePFWswJWPdAt-1" parent="PmAsDYt7ePFWswJWPdAt-0" />
        <mxCell id="oxmdE33mIHyCq36yPL5k-0" value="" style="edgeStyle=none;rounded=0;jumpStyle=none;html=1;shadow=0;labelBackgroundColor=none;startArrow=none;startFill=0;endArrow=classic;endFill=1;jettySize=auto;orthogonalLoop=1;strokeColor=#666666;strokeWidth=5;fontFamily=Architects Daughter;fontSize=18;fontColor=#636363;spacing=5;sketch=1;curveFitting=1;jiggle=2;fontSource=https%3A%2F%2Ffonts.googleapis.com%2Fcss%3Ffamily%3DArchitects%2BDaughter;fillColor=#f5f5f5;fontStyle=1;entryX=0.5;entryY=0;entryDx=0;entryDy=0;" parent="PmAsDYt7ePFWswJWPdAt-1" source="oxmdE33mIHyCq36yPL5k-89" target="oxmdE33mIHyCq36yPL5k-97" edge="1">
          <mxGeometry relative="1" as="geometry">
            <mxPoint x="906.8282694848081" y="92.75" as="sourcePoint" />
            <mxPoint x="917.5999999999999" y="140.04799999999977" as="targetPoint" />
          </mxGeometry>
        </mxCell>
        <mxCell id="oxmdE33mIHyCq36yPL5k-1" value="" style="edgeStyle=none;rounded=0;jumpStyle=none;html=1;shadow=0;labelBackgroundColor=none;startArrow=none;startFill=0;endArrow=classic;endFill=1;jettySize=auto;orthogonalLoop=1;strokeColor=#666666;strokeWidth=4;fontFamily=Architects Daughter;fontSize=18;fontColor=#636363;spacing=5;sketch=1;curveFitting=1;jiggle=2;fontSource=https%3A%2F%2Ffonts.googleapis.com%2Fcss%3Ffamily%3DArchitects%2BDaughter;fillColor=#f5f5f5;fontStyle=1;exitX=1;exitY=0;exitDx=0;exitDy=0;" parent="PmAsDYt7ePFWswJWPdAt-1" source="oxmdE33mIHyCq36yPL5k-89" target="oxmdE33mIHyCq36yPL5k-91" edge="1">
          <mxGeometry relative="1" as="geometry">
            <mxPoint x="1011.9994845892451" y="-141.7061286804037" as="sourcePoint" />
          </mxGeometry>
        </mxCell>
        <mxCell id="oxmdE33mIHyCq36yPL5k-2" value="" style="edgeStyle=none;rounded=0;jumpStyle=none;html=1;shadow=0;labelBackgroundColor=none;startArrow=none;startFill=0;endArrow=classic;endFill=1;jettySize=auto;orthogonalLoop=1;strokeColor=#666666;strokeWidth=5;fontFamily=Architects Daughter;fontSize=18;fontColor=#636363;spacing=5;sketch=1;curveFitting=1;jiggle=2;fontSource=https%3A%2F%2Ffonts.googleapis.com%2Fcss%3Ffamily%3DArchitects%2BDaughter;fillColor=#f5f5f5;fontStyle=1;exitX=0.068;exitY=0.247;exitDx=0;exitDy=0;exitPerimeter=0;" parent="PmAsDYt7ePFWswJWPdAt-1" source="oxmdE33mIHyCq36yPL5k-89" target="oxmdE33mIHyCq36yPL5k-90" edge="1">
          <mxGeometry relative="1" as="geometry">
            <mxPoint x="820" y="30.75" as="sourcePoint" />
          </mxGeometry>
        </mxCell>
        <mxCell id="oxmdE33mIHyCq36yPL5k-4" value="" style="edgeStyle=none;rounded=1;jumpStyle=none;html=1;shadow=0;labelBackgroundColor=none;startArrow=none;startFill=0;jettySize=auto;orthogonalLoop=1;strokeColor=#666666;strokeWidth=2;fontFamily=Architects Daughter;fontSize=18;fontColor=#636363;spacing=5;fontStyle=1;fillColor=#f5f5f5;sketch=1;curveFitting=1;jiggle=2;fontSource=https%3A%2F%2Ffonts.googleapis.com%2Fcss%3Ffamily%3DArchitects%2BDaughter;entryX=0.5;entryY=1;entryDx=0;entryDy=0;" parent="PmAsDYt7ePFWswJWPdAt-1" source="oxmdE33mIHyCq36yPL5k-90" target="oxmdE33mIHyCq36yPL5k-93" edge="1">
          <mxGeometry relative="1" as="geometry" />
        </mxCell>
        <mxCell id="oxmdE33mIHyCq36yPL5k-16" value="" style="edgeStyle=none;rounded=0;jumpStyle=none;html=1;shadow=0;labelBackgroundColor=none;startArrow=none;startFill=0;endArrow=classic;endFill=1;jettySize=auto;orthogonalLoop=1;strokeColor=#666666;strokeWidth=2;fontFamily=Architects Daughter;fontSize=18;fontColor=#636363;spacing=5;sketch=1;curveFitting=1;jiggle=2;fontSource=https%3A%2F%2Ffonts.googleapis.com%2Fcss%3Ffamily%3DArchitects%2BDaughter;fillColor=#f5f5f5;fontStyle=1;entryX=1;entryY=0.5;entryDx=0;entryDy=0;" parent="PmAsDYt7ePFWswJWPdAt-1" source="oxmdE33mIHyCq36yPL5k-97" target="oxmdE33mIHyCq36yPL5k-55" edge="1">
          <mxGeometry relative="1" as="geometry">
            <mxPoint x="813.3186813186812" y="385" as="sourcePoint" />
          </mxGeometry>
        </mxCell>
        <mxCell id="oxmdE33mIHyCq36yPL5k-17" value="" style="edgeStyle=none;rounded=0;jumpStyle=none;html=1;shadow=0;labelBackgroundColor=none;startArrow=none;startFill=0;endArrow=classic;endFill=1;jettySize=auto;orthogonalLoop=1;strokeColor=#666666;strokeWidth=2;fontFamily=Architects Daughter;fontSize=18;fontColor=#636363;spacing=5;sketch=1;curveFitting=1;jiggle=2;fontSource=https%3A%2F%2Ffonts.googleapis.com%2Fcss%3Ffamily%3DArchitects%2BDaughter;fillColor=#f5f5f5;fontStyle=1;entryX=1;entryY=0.5;entryDx=0;entryDy=0;" parent="PmAsDYt7ePFWswJWPdAt-1" source="oxmdE33mIHyCq36yPL5k-97" target="oxmdE33mIHyCq36yPL5k-56" edge="1">
          <mxGeometry relative="1" as="geometry">
            <mxPoint x="838.1333333333332" y="385" as="sourcePoint" />
          </mxGeometry>
        </mxCell>
        <mxCell id="oxmdE33mIHyCq36yPL5k-18" value="&lt;font style=&quot;font-size: 23px;&quot;&gt;&lt;span style=&quot;font-weight: normal;&quot;&gt;Data &lt;/span&gt;&lt;br style=&quot;&quot;&gt;Cleansing&lt;/font&gt;" style="rounded=1;whiteSpace=wrap;html=1;shadow=0;labelBackgroundColor=none;strokeColor=#b85450;strokeWidth=3;fillColor=default;fontFamily=Architects Daughter;fontSize=20;align=center;spacing=5;arcSize=7;perimeterSpacing=2;sketch=1;curveFitting=1;jiggle=2;fontSource=https%3A%2F%2Ffonts.googleapis.com%2Fcss%3Ffamily%3DArchitects%2BDaughter;fontStyle=1" parent="PmAsDYt7ePFWswJWPdAt-1" vertex="1">
          <mxGeometry x="847" y="630" width="200" height="80" as="geometry" />
        </mxCell>
        <mxCell id="oxmdE33mIHyCq36yPL5k-19" value="" style="edgeStyle=none;rounded=0;jumpStyle=none;html=1;shadow=0;labelBackgroundColor=none;startArrow=none;startFill=0;endArrow=classic;endFill=1;jettySize=auto;orthogonalLoop=1;strokeColor=#666666;strokeWidth=2;fontFamily=Architects Daughter;fontSize=18;fontColor=#636363;spacing=5;sketch=1;curveFitting=1;jiggle=2;fontSource=https%3A%2F%2Ffonts.googleapis.com%2Fcss%3Ffamily%3DArchitects%2BDaughter;fillColor=#f5f5f5;fontStyle=1;" parent="PmAsDYt7ePFWswJWPdAt-1" source="oxmdE33mIHyCq36yPL5k-97" target="oxmdE33mIHyCq36yPL5k-18" edge="1">
          <mxGeometry relative="1" as="geometry">
            <mxPoint x="857.0000000000005" y="376.99999999999955" as="sourcePoint" />
          </mxGeometry>
        </mxCell>
        <mxCell id="oxmdE33mIHyCq36yPL5k-48" value="Business Rules &amp;amp; Logic" style="rounded=1;whiteSpace=wrap;html=1;shadow=0;labelBackgroundColor=none;strokeColor=#b85450;strokeWidth=3;fillColor=default;fontFamily=Architects Daughter;fontSize=20;align=center;spacing=5;arcSize=7;perimeterSpacing=2;sketch=1;curveFitting=1;jiggle=2;fontSource=https%3A%2F%2Ffonts.googleapis.com%2Fcss%3Ffamily%3DArchitects%2BDaughter;fontStyle=1" parent="PmAsDYt7ePFWswJWPdAt-1" vertex="1">
          <mxGeometry x="1167" y="386" width="210" height="69.5" as="geometry" />
        </mxCell>
        <mxCell id="oxmdE33mIHyCq36yPL5k-49" value="&lt;span style=&quot;font-weight: normal;&quot;&gt;Data &lt;/span&gt;Normalization &amp;amp; Standardization" style="rounded=1;whiteSpace=wrap;html=1;shadow=0;labelBackgroundColor=none;strokeColor=#b85450;strokeWidth=3;fillColor=default;fontFamily=Architects Daughter;fontSize=20;align=center;spacing=5;arcSize=7;perimeterSpacing=2;sketch=1;curveFitting=1;jiggle=2;fontSource=https%3A%2F%2Ffonts.googleapis.com%2Fcss%3Ffamily%3DArchitects%2BDaughter;fontStyle=1" parent="PmAsDYt7ePFWswJWPdAt-1" vertex="1">
          <mxGeometry x="1187" y="265.5" width="215" height="80" as="geometry" />
        </mxCell>
        <mxCell id="oxmdE33mIHyCq36yPL5k-50" value="Derived Columns" style="rounded=1;whiteSpace=wrap;html=1;shadow=0;labelBackgroundColor=none;strokeColor=#b85450;strokeWidth=3;fillColor=default;fontFamily=Architects Daughter;fontSize=20;align=center;spacing=5;arcSize=7;perimeterSpacing=2;sketch=1;curveFitting=1;jiggle=2;fontSource=https%3A%2F%2Ffonts.googleapis.com%2Fcss%3Ffamily%3DArchitects%2BDaughter;fontStyle=1" parent="PmAsDYt7ePFWswJWPdAt-1" vertex="1">
          <mxGeometry x="577" y="485.5" width="150" height="74.5" as="geometry" />
        </mxCell>
        <mxCell id="oxmdE33mIHyCq36yPL5k-51" value="" style="edgeStyle=none;rounded=0;jumpStyle=none;html=1;shadow=0;labelBackgroundColor=none;startArrow=none;startFill=0;endArrow=classic;endFill=1;jettySize=auto;orthogonalLoop=1;strokeColor=#666666;strokeWidth=2;fontFamily=Architects Daughter;fontSize=18;fontColor=#636363;spacing=5;sketch=1;curveFitting=1;jiggle=2;fontSource=https%3A%2F%2Ffonts.googleapis.com%2Fcss%3Ffamily%3DArchitects%2BDaughter;fillColor=#f5f5f5;fontStyle=1;exitX=0.918;exitY=0.811;exitDx=0;exitDy=0;entryX=0;entryY=0.5;entryDx=0;entryDy=0;exitPerimeter=0;" parent="PmAsDYt7ePFWswJWPdAt-1" source="oxmdE33mIHyCq36yPL5k-97" target="oxmdE33mIHyCq36yPL5k-57" edge="1">
          <mxGeometry relative="1" as="geometry">
            <mxPoint x="890.5" y="385" as="sourcePoint" />
            <mxPoint x="887" y="692" as="targetPoint" />
          </mxGeometry>
        </mxCell>
        <mxCell id="oxmdE33mIHyCq36yPL5k-52" value="" style="edgeStyle=none;rounded=0;jumpStyle=none;html=1;shadow=0;labelBackgroundColor=none;startArrow=none;startFill=0;endArrow=classic;endFill=1;jettySize=auto;orthogonalLoop=1;strokeColor=#666666;strokeWidth=2;fontFamily=Architects Daughter;fontSize=18;fontColor=#636363;spacing=5;sketch=1;curveFitting=1;jiggle=2;fontSource=https%3A%2F%2Ffonts.googleapis.com%2Fcss%3Ffamily%3DArchitects%2BDaughter;fillColor=#f5f5f5;fontStyle=1;exitX=0;exitY=1;exitDx=0;exitDy=0;entryX=1;entryY=0.5;entryDx=0;entryDy=0;" parent="PmAsDYt7ePFWswJWPdAt-1" source="oxmdE33mIHyCq36yPL5k-97" target="oxmdE33mIHyCq36yPL5k-50" edge="1">
          <mxGeometry relative="1" as="geometry">
            <mxPoint x="775" y="353" as="sourcePoint" />
            <mxPoint x="1072" y="692" as="targetPoint" />
          </mxGeometry>
        </mxCell>
        <mxCell id="oxmdE33mIHyCq36yPL5k-53" value="" style="edgeStyle=none;rounded=0;jumpStyle=none;html=1;shadow=0;labelBackgroundColor=none;startArrow=none;startFill=0;endArrow=classic;endFill=1;jettySize=auto;orthogonalLoop=1;strokeColor=#666666;strokeWidth=2;fontFamily=Architects Daughter;fontSize=18;fontColor=#636363;spacing=5;sketch=1;curveFitting=1;jiggle=2;fontSource=https%3A%2F%2Ffonts.googleapis.com%2Fcss%3Ffamily%3DArchitects%2BDaughter;fillColor=#f5f5f5;fontStyle=1;entryX=0;entryY=0.5;entryDx=0;entryDy=0;" parent="PmAsDYt7ePFWswJWPdAt-1" source="oxmdE33mIHyCq36yPL5k-97" target="oxmdE33mIHyCq36yPL5k-49" edge="1">
          <mxGeometry relative="1" as="geometry">
            <mxPoint x="929.0000000000005" y="353" as="sourcePoint" />
            <mxPoint x="732" y="792" as="targetPoint" />
          </mxGeometry>
        </mxCell>
        <mxCell id="oxmdE33mIHyCq36yPL5k-54" value="" style="edgeStyle=none;rounded=0;jumpStyle=none;html=1;shadow=0;labelBackgroundColor=none;startArrow=none;startFill=0;endArrow=classic;endFill=1;jettySize=auto;orthogonalLoop=1;strokeColor=#666666;strokeWidth=2;fontFamily=Architects Daughter;fontSize=18;fontColor=#636363;spacing=5;sketch=1;curveFitting=1;jiggle=2;fontSource=https%3A%2F%2Ffonts.googleapis.com%2Fcss%3Ffamily%3DArchitects%2BDaughter;fillColor=#f5f5f5;fontStyle=1;exitX=1;exitY=0.5;exitDx=0;exitDy=0;entryX=0;entryY=0.5;entryDx=0;entryDy=0;" parent="PmAsDYt7ePFWswJWPdAt-1" source="oxmdE33mIHyCq36yPL5k-97" target="oxmdE33mIHyCq36yPL5k-48" edge="1">
          <mxGeometry relative="1" as="geometry">
            <mxPoint x="919.5" y="385" as="sourcePoint" />
            <mxPoint x="1167" y="300" as="targetPoint" />
          </mxGeometry>
        </mxCell>
        <mxCell id="oxmdE33mIHyCq36yPL5k-55" value="&lt;span style=&quot;font-weight: normal;&quot;&gt;Data &lt;/span&gt;Integration" style="rounded=1;whiteSpace=wrap;html=1;shadow=0;labelBackgroundColor=none;strokeColor=#b85450;strokeWidth=3;fillColor=default;fontFamily=Architects Daughter;fontSize=20;align=center;spacing=5;arcSize=7;perimeterSpacing=2;sketch=1;curveFitting=1;jiggle=2;fontSource=https%3A%2F%2Ffonts.googleapis.com%2Fcss%3Ffamily%3DArchitects%2BDaughter;fontStyle=1" parent="PmAsDYt7ePFWswJWPdAt-1" vertex="1">
          <mxGeometry x="552" y="381" width="150" height="69" as="geometry" />
        </mxCell>
        <mxCell id="oxmdE33mIHyCq36yPL5k-56" value="&lt;span style=&quot;font-weight: normal;&quot;&gt;Data &lt;/span&gt;Enrichment" style="rounded=1;whiteSpace=wrap;html=1;shadow=0;labelBackgroundColor=none;strokeColor=#b85450;strokeWidth=3;fillColor=default;fontFamily=Architects Daughter;fontSize=20;align=center;spacing=5;arcSize=7;perimeterSpacing=2;sketch=1;curveFitting=1;jiggle=2;fontSource=https%3A%2F%2Ffonts.googleapis.com%2Fcss%3Ffamily%3DArchitects%2BDaughter;fontStyle=1" parent="PmAsDYt7ePFWswJWPdAt-1" vertex="1">
          <mxGeometry x="552" y="275.5" width="150" height="64.5" as="geometry" />
        </mxCell>
        <mxCell id="oxmdE33mIHyCq36yPL5k-57" value="&lt;span style=&quot;font-weight: normal;&quot;&gt;Data &lt;/span&gt;Aggregations" style="rounded=1;whiteSpace=wrap;html=1;shadow=0;labelBackgroundColor=none;strokeColor=#b85450;strokeWidth=3;fillColor=default;fontFamily=Architects Daughter;fontSize=20;align=center;spacing=5;arcSize=7;perimeterSpacing=2;sketch=1;curveFitting=1;jiggle=2;fontSource=https%3A%2F%2Ffonts.googleapis.com%2Fcss%3Ffamily%3DArchitects%2BDaughter;fontStyle=1" parent="PmAsDYt7ePFWswJWPdAt-1" vertex="1">
          <mxGeometry x="1147" y="485.5" width="150" height="74.5" as="geometry" />
        </mxCell>
        <mxCell id="oxmdE33mIHyCq36yPL5k-58" value="Handling&lt;br&gt;Missing Data" style="rounded=1;whiteSpace=wrap;html=1;shadow=0;labelBackgroundColor=none;strokeColor=#b85450;strokeWidth=1;fillColor=default;fontFamily=Architects Daughter;fontSize=18;align=center;spacing=5;arcSize=7;perimeterSpacing=2;sketch=1;curveFitting=1;jiggle=2;fontSource=https%3A%2F%2Ffonts.googleapis.com%2Fcss%3Ffamily%3DArchitects%2BDaughter;fontStyle=1" parent="PmAsDYt7ePFWswJWPdAt-1" vertex="1">
          <mxGeometry x="730" y="850" width="150" height="60" as="geometry" />
        </mxCell>
        <mxCell id="oxmdE33mIHyCq36yPL5k-59" value="Remove Duplicates" style="rounded=1;whiteSpace=wrap;html=1;shadow=0;labelBackgroundColor=none;strokeColor=#b85450;strokeWidth=1;fillColor=default;fontFamily=Architects Daughter;fontSize=18;align=center;spacing=5;arcSize=7;perimeterSpacing=2;sketch=1;curveFitting=1;jiggle=2;fontSource=https%3A%2F%2Ffonts.googleapis.com%2Fcss%3Ffamily%3DArchitects%2BDaughter;fontStyle=1" parent="PmAsDYt7ePFWswJWPdAt-1" vertex="1">
          <mxGeometry x="625" y="670" width="150" height="60" as="geometry" />
        </mxCell>
        <mxCell id="oxmdE33mIHyCq36yPL5k-60" value="Handling&lt;br&gt;Invalid Values" style="rounded=1;whiteSpace=wrap;html=1;shadow=0;labelBackgroundColor=none;strokeColor=#b85450;strokeWidth=1;fillColor=default;fontFamily=Architects Daughter;fontSize=18;align=center;spacing=5;arcSize=7;perimeterSpacing=2;sketch=1;curveFitting=1;jiggle=2;fontSource=https%3A%2F%2Ffonts.googleapis.com%2Fcss%3Ffamily%3DArchitects%2BDaughter;fontStyle=1" parent="PmAsDYt7ePFWswJWPdAt-1" vertex="1">
          <mxGeometry x="897" y="850" width="150" height="60" as="geometry" />
        </mxCell>
        <mxCell id="oxmdE33mIHyCq36yPL5k-61" value="Data Type Casting" style="rounded=1;whiteSpace=wrap;html=1;shadow=0;labelBackgroundColor=none;strokeColor=#b85450;strokeWidth=1;fillColor=default;fontFamily=Architects Daughter;fontSize=18;align=center;spacing=5;arcSize=7;perimeterSpacing=2;sketch=1;curveFitting=1;jiggle=2;fontSource=https%3A%2F%2Ffonts.googleapis.com%2Fcss%3Ffamily%3DArchitects%2BDaughter;fontStyle=1" parent="PmAsDYt7ePFWswJWPdAt-1" vertex="1">
          <mxGeometry x="1130" y="740" width="150" height="60" as="geometry" />
        </mxCell>
        <mxCell id="oxmdE33mIHyCq36yPL5k-62" value="Outlier Detection" style="rounded=1;whiteSpace=wrap;html=1;shadow=0;labelBackgroundColor=none;strokeColor=#b85450;strokeWidth=1;fillColor=default;fontFamily=Architects Daughter;fontSize=18;align=center;spacing=5;arcSize=7;perimeterSpacing=2;sketch=1;curveFitting=1;jiggle=2;fontSource=https%3A%2F%2Ffonts.googleapis.com%2Fcss%3Ffamily%3DArchitects%2BDaughter;fontStyle=1" parent="PmAsDYt7ePFWswJWPdAt-1" vertex="1">
          <mxGeometry x="1140" y="650" width="150" height="60" as="geometry" />
        </mxCell>
        <mxCell id="oxmdE33mIHyCq36yPL5k-63" value="Data Filtering" style="rounded=1;whiteSpace=wrap;html=1;shadow=0;labelBackgroundColor=none;strokeColor=#b85450;strokeWidth=1;fillColor=default;fontFamily=Architects Daughter;fontSize=18;align=center;spacing=5;arcSize=7;perimeterSpacing=2;sketch=1;curveFitting=1;jiggle=2;fontSource=https%3A%2F%2Ffonts.googleapis.com%2Fcss%3Ffamily%3DArchitects%2BDaughter;fontStyle=1" parent="PmAsDYt7ePFWswJWPdAt-1" vertex="1">
          <mxGeometry x="660" y="760" width="150" height="60" as="geometry" />
        </mxCell>
        <mxCell id="oxmdE33mIHyCq36yPL5k-64" value="Pull &lt;br style=&quot;font-size: 18px;&quot;&gt;&lt;span style=&quot;font-weight: normal;&quot;&gt;Extraction&lt;/span&gt;" style="rounded=1;whiteSpace=wrap;html=1;shadow=0;labelBackgroundColor=none;strokeColor=#82b366;strokeWidth=1;fillColor=default;fontFamily=Architects Daughter;fontSize=18;align=center;spacing=5;fontStyle=1;arcSize=7;perimeterSpacing=2;sketch=1;curveFitting=1;jiggle=2;fontSource=https%3A%2F%2Ffonts.googleapis.com%2Fcss%3Ffamily%3DArchitects%2BDaughter;" parent="PmAsDYt7ePFWswJWPdAt-1" vertex="1">
          <mxGeometry x="470" y="-690" width="155" height="60" as="geometry" />
        </mxCell>
        <mxCell id="oxmdE33mIHyCq36yPL5k-65" value="Push&lt;br style=&quot;font-size: 18px;&quot;&gt;&lt;span style=&quot;font-weight: normal;&quot;&gt;Extraction&lt;/span&gt;" style="rounded=1;whiteSpace=wrap;html=1;shadow=0;labelBackgroundColor=none;strokeColor=#82b366;strokeWidth=1;fillColor=default;fontFamily=Architects Daughter;fontSize=18;align=center;spacing=5;fontStyle=1;arcSize=7;perimeterSpacing=2;sketch=1;curveFitting=1;jiggle=2;fontSource=https%3A%2F%2Ffonts.googleapis.com%2Fcss%3Ffamily%3DArchitects%2BDaughter;" parent="PmAsDYt7ePFWswJWPdAt-1" vertex="1">
          <mxGeometry x="637" y="-690" width="150" height="60" as="geometry" />
        </mxCell>
        <mxCell id="oxmdE33mIHyCq36yPL5k-66" value="Full &lt;br style=&quot;font-size: 18px;&quot;&gt;&lt;span style=&quot;font-weight: normal;&quot;&gt;Extraction&lt;/span&gt;" style="rounded=1;whiteSpace=wrap;html=1;shadow=0;labelBackgroundColor=none;strokeColor=#82b366;strokeWidth=1;fillColor=default;fontFamily=Architects Daughter;fontSize=18;align=center;spacing=5;fontStyle=1;arcSize=7;perimeterSpacing=2;sketch=1;curveFitting=1;jiggle=2;fontSource=https%3A%2F%2Ffonts.googleapis.com%2Fcss%3Ffamily%3DArchitects%2BDaughter;" parent="PmAsDYt7ePFWswJWPdAt-1" vertex="1">
          <mxGeometry x="114" y="-476" width="150" height="60" as="geometry" />
        </mxCell>
        <mxCell id="oxmdE33mIHyCq36yPL5k-67" value="Incremental&lt;br style=&quot;border-color: var(--border-color); font-size: 18px;&quot;&gt;&lt;span style=&quot;font-weight: normal;&quot;&gt;Extraction&lt;/span&gt;" style="rounded=1;whiteSpace=wrap;html=1;shadow=0;labelBackgroundColor=none;strokeColor=#82b366;strokeWidth=1;fillColor=default;fontFamily=Architects Daughter;fontSize=18;align=center;spacing=5;fontStyle=1;arcSize=7;perimeterSpacing=2;sketch=1;curveFitting=1;jiggle=2;fontSource=https%3A%2F%2Ffonts.googleapis.com%2Fcss%3Ffamily%3DArchitects%2BDaughter;" parent="PmAsDYt7ePFWswJWPdAt-1" vertex="1">
          <mxGeometry x="114" y="-370.5" width="150" height="60" as="geometry" />
        </mxCell>
        <mxCell id="oxmdE33mIHyCq36yPL5k-68" value="Event Based&lt;br&gt;Streaming" style="rounded=1;whiteSpace=wrap;html=1;shadow=0;labelBackgroundColor=none;strokeColor=#82b366;strokeWidth=1;fillColor=default;fontFamily=Architects Daughter;fontSize=18;align=center;spacing=5;fontStyle=1;arcSize=7;perimeterSpacing=2;sketch=1;curveFitting=1;jiggle=2;fontSource=https%3A%2F%2Ffonts.googleapis.com%2Fcss%3Ffamily%3DArchitects%2BDaughter;" parent="PmAsDYt7ePFWswJWPdAt-1" vertex="1">
          <mxGeometry x="140" y="86.5" width="150" height="60" as="geometry" />
        </mxCell>
        <mxCell id="oxmdE33mIHyCq36yPL5k-69" value="Database Querying" style="rounded=1;whiteSpace=wrap;html=1;shadow=0;labelBackgroundColor=none;strokeColor=#82b366;strokeWidth=1;fillColor=default;fontFamily=Architects Daughter;fontSize=18;align=center;spacing=5;fontStyle=1;arcSize=7;perimeterSpacing=2;sketch=1;curveFitting=1;jiggle=2;fontSource=https%3A%2F%2Ffonts.googleapis.com%2Fcss%3Ffamily%3DArchitects%2BDaughter;" parent="PmAsDYt7ePFWswJWPdAt-1" vertex="1">
          <mxGeometry x="60" y="-140.25" width="150" height="60" as="geometry" />
        </mxCell>
        <mxCell id="oxmdE33mIHyCq36yPL5k-70" value="Manual Data Extraction" style="rounded=1;whiteSpace=wrap;html=1;shadow=0;labelBackgroundColor=none;strokeColor=#82b366;strokeWidth=1;fillColor=default;fontFamily=Architects Daughter;fontSize=18;align=center;spacing=5;fontStyle=1;arcSize=7;perimeterSpacing=2;sketch=1;curveFitting=1;jiggle=2;fontSource=https%3A%2F%2Ffonts.googleapis.com%2Fcss%3Ffamily%3DArchitects%2BDaughter;" parent="PmAsDYt7ePFWswJWPdAt-1" vertex="1">
          <mxGeometry x="185" y="-220.5" width="150" height="60" as="geometry" />
        </mxCell>
        <mxCell id="oxmdE33mIHyCq36yPL5k-71" value="Web Scraping" style="rounded=1;whiteSpace=wrap;html=1;shadow=0;labelBackgroundColor=none;strokeColor=#82b366;strokeWidth=1;fillColor=default;fontFamily=Architects Daughter;fontSize=18;align=center;spacing=5;fontStyle=1;arcSize=7;perimeterSpacing=2;sketch=1;curveFitting=1;jiggle=2;fontSource=https%3A%2F%2Ffonts.googleapis.com%2Fcss%3Ffamily%3DArchitects%2BDaughter;" parent="PmAsDYt7ePFWswJWPdAt-1" vertex="1">
          <mxGeometry x="400" y="70.5" width="150" height="60" as="geometry" />
        </mxCell>
        <mxCell id="oxmdE33mIHyCq36yPL5k-72" value="API Calls" style="rounded=1;whiteSpace=wrap;html=1;shadow=0;labelBackgroundColor=none;strokeColor=#82b366;strokeWidth=1;fillColor=default;fontFamily=Architects Daughter;fontSize=18;align=center;spacing=5;fontStyle=1;arcSize=7;perimeterSpacing=2;sketch=1;curveFitting=1;jiggle=2;fontSource=https%3A%2F%2Ffonts.googleapis.com%2Fcss%3Ffamily%3DArchitects%2BDaughter;" parent="PmAsDYt7ePFWswJWPdAt-1" vertex="1">
          <mxGeometry x="60" y="10.5" width="150" height="60" as="geometry" />
        </mxCell>
        <mxCell id="oxmdE33mIHyCq36yPL5k-73" value="File Parsing" style="rounded=1;whiteSpace=wrap;html=1;shadow=0;labelBackgroundColor=none;strokeColor=#82b366;strokeWidth=1;fillColor=default;fontFamily=Architects Daughter;fontSize=18;align=center;spacing=5;fontStyle=1;arcSize=7;perimeterSpacing=2;sketch=1;curveFitting=1;jiggle=2;fontSource=https%3A%2F%2Ffonts.googleapis.com%2Fcss%3Ffamily%3DArchitects%2BDaughter;" parent="PmAsDYt7ePFWswJWPdAt-1" vertex="1">
          <mxGeometry x="60" y="-69.75" width="150" height="60" as="geometry" />
        </mxCell>
        <mxCell id="oxmdE33mIHyCq36yPL5k-74" value="CDC" style="rounded=1;whiteSpace=wrap;html=1;shadow=0;labelBackgroundColor=none;strokeColor=#82b366;strokeWidth=1;fillColor=default;fontFamily=Architects Daughter;fontSize=18;align=center;spacing=5;fontStyle=1;arcSize=7;perimeterSpacing=2;sketch=1;curveFitting=1;jiggle=2;fontSource=https%3A%2F%2Ffonts.googleapis.com%2Fcss%3Ffamily%3DArchitects%2BDaughter;" parent="PmAsDYt7ePFWswJWPdAt-1" vertex="1">
          <mxGeometry x="270" y="152.5" width="150" height="60" as="geometry" />
        </mxCell>
        <mxCell id="oxmdE33mIHyCq36yPL5k-75" value="&lt;span style=&quot;font-weight: normal;&quot;&gt;Extract &lt;br style=&quot;font-size: 20px;&quot;&gt;&lt;/span&gt;Techniques" style="rounded=1;whiteSpace=wrap;html=1;shadow=0;labelBackgroundColor=none;strokeColor=#82b366;strokeWidth=3;fillColor=default;fontFamily=Architects Daughter;fontSize=20;align=center;spacing=5;fontStyle=1;arcSize=7;perimeterSpacing=2;sketch=1;curveFitting=1;jiggle=2;fontSource=https%3A%2F%2Ffonts.googleapis.com%2Fcss%3Ffamily%3DArchitects%2BDaughter;" parent="PmAsDYt7ePFWswJWPdAt-1" vertex="1">
          <mxGeometry x="335" y="-100.5" width="180" height="69.5" as="geometry" />
        </mxCell>
        <mxCell id="oxmdE33mIHyCq36yPL5k-76" value="" style="edgeStyle=none;rounded=1;jumpStyle=none;html=1;shadow=0;labelBackgroundColor=none;startArrow=none;startFill=0;jettySize=auto;orthogonalLoop=1;strokeColor=#666666;strokeWidth=1;fontFamily=Architects Daughter;fontSize=18;fontColor=#636363;spacing=5;fontStyle=1;fillColor=#f5f5f5;sketch=1;curveFitting=1;jiggle=2;fontSource=https%3A%2F%2Ffonts.googleapis.com%2Fcss%3Ffamily%3DArchitects%2BDaughter;exitX=0.325;exitY=0.029;exitDx=0;exitDy=0;entryX=0.5;entryY=1;entryDx=0;entryDy=0;exitPerimeter=0;" parent="PmAsDYt7ePFWswJWPdAt-1" source="oxmdE33mIHyCq36yPL5k-93" target="oxmdE33mIHyCq36yPL5k-64" edge="1">
          <mxGeometry relative="1" as="geometry">
            <mxPoint x="635" y="-318.5" as="sourcePoint" />
            <mxPoint x="529" y="-502.5" as="targetPoint" />
          </mxGeometry>
        </mxCell>
        <mxCell id="oxmdE33mIHyCq36yPL5k-77" value="" style="edgeStyle=none;rounded=1;jumpStyle=none;html=1;shadow=0;labelBackgroundColor=none;startArrow=none;startFill=0;jettySize=auto;orthogonalLoop=1;strokeColor=#666666;strokeWidth=1;fontFamily=Architects Daughter;fontSize=18;fontColor=#636363;spacing=5;fontStyle=1;fillColor=#f5f5f5;sketch=1;curveFitting=1;jiggle=2;fontSource=https%3A%2F%2Ffonts.googleapis.com%2Fcss%3Ffamily%3DArchitects%2BDaughter;exitX=0.717;exitY=0.238;exitDx=0;exitDy=0;entryX=0.5;entryY=1;entryDx=0;entryDy=0;exitPerimeter=0;" parent="PmAsDYt7ePFWswJWPdAt-1" source="oxmdE33mIHyCq36yPL5k-93" target="oxmdE33mIHyCq36yPL5k-65" edge="1">
          <mxGeometry relative="1" as="geometry">
            <mxPoint x="434" y="-534.5" as="sourcePoint" />
            <mxPoint x="735" y="-628.5" as="targetPoint" />
          </mxGeometry>
        </mxCell>
        <mxCell id="oxmdE33mIHyCq36yPL5k-78" value="" style="edgeStyle=none;rounded=1;jumpStyle=none;html=1;shadow=0;labelBackgroundColor=none;startArrow=none;startFill=0;jettySize=auto;orthogonalLoop=1;strokeColor=#666666;strokeWidth=2;fontFamily=Architects Daughter;fontSize=18;fontColor=#636363;spacing=5;fontStyle=1;fillColor=#f5f5f5;sketch=1;curveFitting=1;jiggle=2;fontSource=https%3A%2F%2Ffonts.googleapis.com%2Fcss%3Ffamily%3DArchitects%2BDaughter;entryX=1;entryY=0.75;entryDx=0;entryDy=0;exitX=0;exitY=0;exitDx=0;exitDy=0;" parent="PmAsDYt7ePFWswJWPdAt-1" source="oxmdE33mIHyCq36yPL5k-90" target="oxmdE33mIHyCq36yPL5k-94" edge="1">
          <mxGeometry relative="1" as="geometry">
            <mxPoint x="560" y="-330.5" as="sourcePoint" />
            <mxPoint x="472.99999999999955" y="-410.5" as="targetPoint" />
          </mxGeometry>
        </mxCell>
        <mxCell id="oxmdE33mIHyCq36yPL5k-79" value="" style="edgeStyle=none;rounded=1;jumpStyle=none;html=1;shadow=0;labelBackgroundColor=none;startArrow=none;startFill=0;jettySize=auto;orthogonalLoop=1;strokeColor=#666666;strokeWidth=1;fontFamily=Architects Daughter;fontSize=18;fontColor=#636363;spacing=5;fontStyle=1;fillColor=#f5f5f5;sketch=1;curveFitting=1;jiggle=2;fontSource=https%3A%2F%2Ffonts.googleapis.com%2Fcss%3Ffamily%3DArchitects%2BDaughter;exitX=0;exitY=0.25;exitDx=0;exitDy=0;entryX=1;entryY=0.5;entryDx=0;entryDy=0;" parent="PmAsDYt7ePFWswJWPdAt-1" source="oxmdE33mIHyCq36yPL5k-94" target="oxmdE33mIHyCq36yPL5k-66" edge="1">
          <mxGeometry relative="1" as="geometry">
            <mxPoint x="319" y="-426.4999999999998" as="sourcePoint" />
            <mxPoint x="492" y="-366.5" as="targetPoint" />
          </mxGeometry>
        </mxCell>
        <mxCell id="oxmdE33mIHyCq36yPL5k-80" value="" style="edgeStyle=none;rounded=1;jumpStyle=none;html=1;shadow=0;labelBackgroundColor=none;startArrow=none;startFill=0;jettySize=auto;orthogonalLoop=1;strokeColor=#666666;strokeWidth=1;fontFamily=Architects Daughter;fontSize=18;fontColor=#636363;spacing=5;fontStyle=1;fillColor=#f5f5f5;sketch=1;curveFitting=1;jiggle=2;fontSource=https%3A%2F%2Ffonts.googleapis.com%2Fcss%3Ffamily%3DArchitects%2BDaughter;exitX=0;exitY=0.75;exitDx=0;exitDy=0;entryX=1;entryY=0.5;entryDx=0;entryDy=0;" parent="PmAsDYt7ePFWswJWPdAt-1" source="oxmdE33mIHyCq36yPL5k-94" target="oxmdE33mIHyCq36yPL5k-67" edge="1">
          <mxGeometry relative="1" as="geometry">
            <mxPoint x="319" y="-394.5" as="sourcePoint" />
            <mxPoint x="302" y="-390.5" as="targetPoint" />
          </mxGeometry>
        </mxCell>
        <mxCell id="oxmdE33mIHyCq36yPL5k-81" value="" style="edgeStyle=none;rounded=1;jumpStyle=none;html=1;shadow=0;labelBackgroundColor=none;startArrow=none;startFill=0;jettySize=auto;orthogonalLoop=1;strokeColor=#666666;strokeWidth=2;fontFamily=Architects Daughter;fontSize=18;fontColor=#636363;spacing=5;fontStyle=1;fillColor=#f5f5f5;sketch=1;curveFitting=1;jiggle=2;fontSource=https%3A%2F%2Ffonts.googleapis.com%2Fcss%3Ffamily%3DArchitects%2BDaughter;exitX=0;exitY=1;exitDx=0;exitDy=0;entryX=1;entryY=0;entryDx=0;entryDy=0;" parent="PmAsDYt7ePFWswJWPdAt-1" source="oxmdE33mIHyCq36yPL5k-90" target="oxmdE33mIHyCq36yPL5k-75" edge="1">
          <mxGeometry relative="1" as="geometry">
            <mxPoint x="574.1248182056261" y="-209.33451908231973" as="sourcePoint" />
            <mxPoint x="460" y="-110.5" as="targetPoint" />
          </mxGeometry>
        </mxCell>
        <mxCell id="oxmdE33mIHyCq36yPL5k-82" value="" style="edgeStyle=none;rounded=1;jumpStyle=none;html=1;shadow=0;labelBackgroundColor=none;startArrow=none;startFill=0;jettySize=auto;orthogonalLoop=1;strokeColor=#666666;strokeWidth=1;fontFamily=Architects Daughter;fontSize=18;fontColor=#636363;spacing=5;fontStyle=1;fillColor=#f5f5f5;sketch=1;curveFitting=1;jiggle=2;fontSource=https%3A%2F%2Ffonts.googleapis.com%2Fcss%3Ffamily%3DArchitects%2BDaughter;exitX=0;exitY=0;exitDx=0;exitDy=0;entryX=0.75;entryY=1;entryDx=0;entryDy=0;" parent="PmAsDYt7ePFWswJWPdAt-1" source="oxmdE33mIHyCq36yPL5k-75" target="oxmdE33mIHyCq36yPL5k-70" edge="1">
          <mxGeometry relative="1" as="geometry">
            <mxPoint x="536" y="-219.75" as="sourcePoint" />
            <mxPoint x="408" y="-3.75" as="targetPoint" />
          </mxGeometry>
        </mxCell>
        <mxCell id="oxmdE33mIHyCq36yPL5k-83" value="" style="edgeStyle=none;rounded=1;jumpStyle=none;html=1;shadow=0;labelBackgroundColor=none;startArrow=none;startFill=0;jettySize=auto;orthogonalLoop=1;strokeColor=#666666;strokeWidth=1;fontFamily=Architects Daughter;fontSize=18;fontColor=#636363;spacing=5;fontStyle=1;fillColor=#f5f5f5;sketch=1;curveFitting=1;jiggle=2;fontSource=https%3A%2F%2Ffonts.googleapis.com%2Fcss%3Ffamily%3DArchitects%2BDaughter;exitX=0;exitY=0.25;exitDx=0;exitDy=0;entryX=1;entryY=0.5;entryDx=0;entryDy=0;" parent="PmAsDYt7ePFWswJWPdAt-1" source="oxmdE33mIHyCq36yPL5k-75" target="oxmdE33mIHyCq36yPL5k-69" edge="1">
          <mxGeometry relative="1" as="geometry">
            <mxPoint x="331" y="28.25" as="sourcePoint" />
            <mxPoint x="281" y="-161.75" as="targetPoint" />
          </mxGeometry>
        </mxCell>
        <mxCell id="oxmdE33mIHyCq36yPL5k-84" value="" style="edgeStyle=none;rounded=1;jumpStyle=none;html=1;shadow=0;labelBackgroundColor=none;startArrow=none;startFill=0;jettySize=auto;orthogonalLoop=1;strokeColor=#666666;strokeWidth=1;fontFamily=Architects Daughter;fontSize=18;fontColor=#636363;spacing=5;fontStyle=1;fillColor=#f5f5f5;sketch=1;curveFitting=1;jiggle=2;fontSource=https%3A%2F%2Ffonts.googleapis.com%2Fcss%3Ffamily%3DArchitects%2BDaughter;entryX=1;entryY=0.5;entryDx=0;entryDy=0;exitX=0;exitY=0.5;exitDx=0;exitDy=0;" parent="PmAsDYt7ePFWswJWPdAt-1" source="oxmdE33mIHyCq36yPL5k-75" target="oxmdE33mIHyCq36yPL5k-73" edge="1">
          <mxGeometry relative="1" as="geometry">
            <mxPoint x="318" y="18.25" as="sourcePoint" />
            <mxPoint x="193" y="-90.75" as="targetPoint" />
          </mxGeometry>
        </mxCell>
        <mxCell id="oxmdE33mIHyCq36yPL5k-85" value="" style="edgeStyle=none;rounded=1;jumpStyle=none;html=1;shadow=0;labelBackgroundColor=none;startArrow=none;startFill=0;jettySize=auto;orthogonalLoop=1;strokeColor=#666666;strokeWidth=1;fontFamily=Architects Daughter;fontSize=18;fontColor=#636363;spacing=5;fontStyle=1;fillColor=#f5f5f5;sketch=1;curveFitting=1;jiggle=2;fontSource=https%3A%2F%2Ffonts.googleapis.com%2Fcss%3Ffamily%3DArchitects%2BDaughter;entryX=1;entryY=0.5;entryDx=0;entryDy=0;exitX=0;exitY=0.75;exitDx=0;exitDy=0;" parent="PmAsDYt7ePFWswJWPdAt-1" source="oxmdE33mIHyCq36yPL5k-75" target="oxmdE33mIHyCq36yPL5k-72" edge="1">
          <mxGeometry relative="1" as="geometry">
            <mxPoint x="328" y="28.25" as="sourcePoint" />
            <mxPoint x="172" y="-5.75" as="targetPoint" />
          </mxGeometry>
        </mxCell>
        <mxCell id="oxmdE33mIHyCq36yPL5k-86" value="" style="edgeStyle=none;rounded=1;jumpStyle=none;html=1;shadow=0;labelBackgroundColor=none;startArrow=none;startFill=0;jettySize=auto;orthogonalLoop=1;strokeColor=#666666;strokeWidth=1;fontFamily=Architects Daughter;fontSize=18;fontColor=#636363;spacing=5;fontStyle=1;fillColor=#f5f5f5;sketch=1;curveFitting=1;jiggle=2;fontSource=https%3A%2F%2Ffonts.googleapis.com%2Fcss%3Ffamily%3DArchitects%2BDaughter;exitX=0.11;exitY=0.98;exitDx=0;exitDy=0;exitPerimeter=0;" parent="PmAsDYt7ePFWswJWPdAt-1" source="oxmdE33mIHyCq36yPL5k-75" target="oxmdE33mIHyCq36yPL5k-68" edge="1">
          <mxGeometry relative="1" as="geometry">
            <mxPoint x="331" y="28.25" as="sourcePoint" />
            <mxPoint x="179" y="86.25" as="targetPoint" />
          </mxGeometry>
        </mxCell>
        <mxCell id="oxmdE33mIHyCq36yPL5k-87" value="" style="edgeStyle=none;rounded=1;jumpStyle=none;html=1;shadow=0;labelBackgroundColor=none;startArrow=none;startFill=0;jettySize=auto;orthogonalLoop=1;strokeColor=#666666;strokeWidth=1;fontFamily=Architects Daughter;fontSize=18;fontColor=#636363;spacing=5;fontStyle=1;fillColor=#f5f5f5;sketch=1;curveFitting=1;jiggle=2;fontSource=https%3A%2F%2Ffonts.googleapis.com%2Fcss%3Ffamily%3DArchitects%2BDaughter;entryX=0.5;entryY=0;entryDx=0;entryDy=0;exitX=0.25;exitY=1;exitDx=0;exitDy=0;" parent="PmAsDYt7ePFWswJWPdAt-1" source="oxmdE33mIHyCq36yPL5k-75" target="oxmdE33mIHyCq36yPL5k-74" edge="1">
          <mxGeometry relative="1" as="geometry">
            <mxPoint x="331" y="28.25" as="sourcePoint" />
            <mxPoint x="189" y="137.25" as="targetPoint" />
          </mxGeometry>
        </mxCell>
        <mxCell id="oxmdE33mIHyCq36yPL5k-88" value="" style="edgeStyle=none;rounded=1;jumpStyle=none;html=1;shadow=0;labelBackgroundColor=none;startArrow=none;startFill=0;jettySize=auto;orthogonalLoop=1;strokeColor=#666666;strokeWidth=1;fontFamily=Architects Daughter;fontSize=18;fontColor=#636363;spacing=5;fontStyle=1;fillColor=#f5f5f5;sketch=1;curveFitting=1;jiggle=2;fontSource=https%3A%2F%2Ffonts.googleapis.com%2Fcss%3Ffamily%3DArchitects%2BDaughter;entryX=0.5;entryY=0;entryDx=0;entryDy=0;" parent="PmAsDYt7ePFWswJWPdAt-1" target="oxmdE33mIHyCq36yPL5k-71" edge="1">
          <mxGeometry relative="1" as="geometry">
            <mxPoint x="410" y="-30.5" as="sourcePoint" />
            <mxPoint x="270" y="215.25" as="targetPoint" />
          </mxGeometry>
        </mxCell>
        <mxCell id="oxmdE33mIHyCq36yPL5k-89" value="&lt;font style=&quot;font-size: 44px;&quot;&gt;ETL&lt;/font&gt;" style="ellipse;whiteSpace=wrap;html=1;sketch=1;hachureGap=4;jiggle=2;curveFitting=1;fontFamily=Architects Daughter;fontSource=https%3A%2F%2Ffonts.googleapis.com%2Fcss%3Ffamily%3DArchitects%2BDaughter;fontSize=36;fillColor=#f5f5f5;fontColor=#333333;strokeColor=#666666;strokeWidth=2;fontStyle=1" parent="PmAsDYt7ePFWswJWPdAt-1" vertex="1">
          <mxGeometry x="817" y="-110.25" width="250" height="220" as="geometry" />
        </mxCell>
        <mxCell id="oxmdE33mIHyCq36yPL5k-90" value="&lt;font style=&quot;font-size: 44px;&quot;&gt;E&lt;/font&gt;&lt;font style=&quot;font-size: 26px; font-weight: normal;&quot;&gt;xtraction&lt;/font&gt;" style="ellipse;whiteSpace=wrap;html=1;sketch=1;hachureGap=4;jiggle=2;curveFitting=1;fontFamily=Architects Daughter;fontSource=https%3A%2F%2Ffonts.googleapis.com%2Fcss%3Ffamily%3DArchitects%2BDaughter;fontSize=20;fillColor=#d5e8d4;strokeColor=#82b366;strokeWidth=2;fillStyle=dashed;fontStyle=1" parent="PmAsDYt7ePFWswJWPdAt-1" vertex="1">
          <mxGeometry x="550" y="-336.25" width="180" height="155.5" as="geometry" />
        </mxCell>
        <mxCell id="oxmdE33mIHyCq36yPL5k-91" value="&lt;font style=&quot;border-color: var(--border-color); font-size: 44px;&quot;&gt;L&lt;/font&gt;&lt;font style=&quot;border-color: var(--border-color); font-size: 30px; font-weight: normal;&quot;&gt;oad&lt;/font&gt;" style="ellipse;whiteSpace=wrap;html=1;sketch=1;hachureGap=4;jiggle=2;curveFitting=1;fontFamily=Architects Daughter;fontSource=https%3A%2F%2Ffonts.googleapis.com%2Fcss%3Ffamily%3DArchitects%2BDaughter;fontSize=20;fillColor=#dae8fc;strokeColor=#6c8ebf;strokeWidth=2;fillStyle=dashed;fontStyle=1" parent="PmAsDYt7ePFWswJWPdAt-1" vertex="1">
          <mxGeometry x="1092.13" y="-346" width="160" height="136" as="geometry" />
        </mxCell>
        <mxCell id="oxmdE33mIHyCq36yPL5k-93" value="&lt;span style=&quot;font-weight: normal;&quot;&gt;Extraction &lt;/span&gt;&lt;br style=&quot;font-size: 20px;&quot;&gt;methods" style="rounded=1;whiteSpace=wrap;html=1;shadow=0;labelBackgroundColor=none;strokeColor=#82b366;strokeWidth=3;fillColor=default;fontFamily=Architects Daughter;fontSize=20;align=center;spacing=5;fontStyle=1;arcSize=7;perimeterSpacing=2;sketch=1;curveFitting=1;jiggle=2;fontSource=https%3A%2F%2Ffonts.googleapis.com%2Fcss%3Ffamily%3DArchitects%2BDaughter;" parent="PmAsDYt7ePFWswJWPdAt-1" vertex="1">
          <mxGeometry x="550" y="-534.25" width="180" height="69.5" as="geometry" />
        </mxCell>
        <mxCell id="oxmdE33mIHyCq36yPL5k-94" value="&lt;span style=&quot;font-weight: normal;&quot;&gt;Extract &lt;/span&gt;&lt;br style=&quot;font-size: 20px;&quot;&gt;Types" style="rounded=1;whiteSpace=wrap;html=1;shadow=0;labelBackgroundColor=none;strokeColor=#82b366;strokeWidth=3;fillColor=default;fontFamily=Architects Daughter;fontSize=20;align=center;spacing=5;fontStyle=1;arcSize=7;perimeterSpacing=2;sketch=1;curveFitting=1;jiggle=2;fontSource=https%3A%2F%2Ffonts.googleapis.com%2Fcss%3Ffamily%3DArchitects%2BDaughter;" parent="PmAsDYt7ePFWswJWPdAt-1" vertex="1">
          <mxGeometry x="330" y="-430.5" width="180" height="69.5" as="geometry" />
        </mxCell>
        <mxCell id="oxmdE33mIHyCq36yPL5k-97" value="&lt;font style=&quot;font-size: 40px;&quot;&gt;T&lt;/font&gt;&lt;font style=&quot;font-size: 24px; font-weight: normal;&quot;&gt;ransformation&lt;/font&gt;" style="ellipse;whiteSpace=wrap;html=1;sketch=1;hachureGap=4;jiggle=2;curveFitting=1;fontFamily=Architects Daughter;fontSource=https%3A%2F%2Ffonts.googleapis.com%2Fcss%3Ffamily%3DArchitects%2BDaughter;fontSize=20;fillColor=#f8cecc;strokeColor=#b85450;strokeWidth=2;fillStyle=dashed;fontStyle=1" parent="PmAsDYt7ePFWswJWPdAt-1" vertex="1">
          <mxGeometry x="822" y="260" width="225" height="200" as="geometry" />
        </mxCell>
        <mxCell id="oxmdE33mIHyCq36yPL5k-102" value="" style="edgeStyle=none;rounded=1;jumpStyle=none;html=1;shadow=0;labelBackgroundColor=none;startArrow=none;startFill=0;jettySize=auto;orthogonalLoop=1;strokeColor=#666666;strokeWidth=1;fontFamily=Architects Daughter;fontSize=18;fontColor=#636363;spacing=5;fontStyle=1;fillColor=#f5f5f5;sketch=1;curveFitting=1;jiggle=2;fontSource=https%3A%2F%2Ffonts.googleapis.com%2Fcss%3Ffamily%3DArchitects%2BDaughter;entryX=1;entryY=0.5;entryDx=0;entryDy=0;exitX=0;exitY=0.75;exitDx=0;exitDy=0;" parent="PmAsDYt7ePFWswJWPdAt-1" source="oxmdE33mIHyCq36yPL5k-18" target="oxmdE33mIHyCq36yPL5k-59" edge="1">
          <mxGeometry relative="1" as="geometry">
            <mxPoint x="941" y="710" as="sourcePoint" />
            <mxPoint x="907" y="889" as="targetPoint" />
          </mxGeometry>
        </mxCell>
        <mxCell id="oxmdE33mIHyCq36yPL5k-103" value="" style="edgeStyle=none;rounded=1;jumpStyle=none;html=1;shadow=0;labelBackgroundColor=none;startArrow=none;startFill=0;jettySize=auto;orthogonalLoop=1;strokeColor=#666666;strokeWidth=1;fontFamily=Architects Daughter;fontSize=18;fontColor=#636363;spacing=5;fontStyle=1;fillColor=#f5f5f5;sketch=1;curveFitting=1;jiggle=2;fontSource=https%3A%2F%2Ffonts.googleapis.com%2Fcss%3Ffamily%3DArchitects%2BDaughter;entryX=1;entryY=0.25;entryDx=0;entryDy=0;exitX=0.158;exitY=0.961;exitDx=0;exitDy=0;exitPerimeter=0;" parent="PmAsDYt7ePFWswJWPdAt-1" source="oxmdE33mIHyCq36yPL5k-18" target="oxmdE33mIHyCq36yPL5k-63" edge="1">
          <mxGeometry relative="1" as="geometry">
            <mxPoint x="855" y="722" as="sourcePoint" />
            <mxPoint x="789" y="750" as="targetPoint" />
          </mxGeometry>
        </mxCell>
        <mxCell id="oxmdE33mIHyCq36yPL5k-104" value="" style="edgeStyle=none;rounded=1;jumpStyle=none;html=1;shadow=0;labelBackgroundColor=none;startArrow=none;startFill=0;jettySize=auto;orthogonalLoop=1;strokeColor=#666666;strokeWidth=1;fontFamily=Architects Daughter;fontSize=18;fontColor=#636363;spacing=5;fontStyle=1;fillColor=#f5f5f5;sketch=1;curveFitting=1;jiggle=2;fontSource=https%3A%2F%2Ffonts.googleapis.com%2Fcss%3Ffamily%3DArchitects%2BDaughter;" parent="PmAsDYt7ePFWswJWPdAt-1" source="oxmdE33mIHyCq36yPL5k-18" target="oxmdE33mIHyCq36yPL5k-58" edge="1">
          <mxGeometry relative="1" as="geometry">
            <mxPoint x="906" y="722" as="sourcePoint" />
            <mxPoint x="859" y="834" as="targetPoint" />
          </mxGeometry>
        </mxCell>
        <mxCell id="oxmdE33mIHyCq36yPL5k-105" value="" style="edgeStyle=none;rounded=1;jumpStyle=none;html=1;shadow=0;labelBackgroundColor=none;startArrow=none;startFill=0;jettySize=auto;orthogonalLoop=1;strokeColor=#666666;strokeWidth=1;fontFamily=Architects Daughter;fontSize=18;fontColor=#636363;spacing=5;fontStyle=1;fillColor=#f5f5f5;sketch=1;curveFitting=1;jiggle=2;fontSource=https%3A%2F%2Ffonts.googleapis.com%2Fcss%3Ffamily%3DArchitects%2BDaughter;entryX=0.414;entryY=0.022;entryDx=0;entryDy=0;exitX=0.5;exitY=1;exitDx=0;exitDy=0;entryPerimeter=0;" parent="PmAsDYt7ePFWswJWPdAt-1" source="oxmdE33mIHyCq36yPL5k-18" target="oxmdE33mIHyCq36yPL5k-60" edge="1">
          <mxGeometry relative="1" as="geometry">
            <mxPoint x="916" y="732" as="sourcePoint" />
            <mxPoint x="869" y="844" as="targetPoint" />
          </mxGeometry>
        </mxCell>
        <mxCell id="oxmdE33mIHyCq36yPL5k-106" value="" style="edgeStyle=none;rounded=1;jumpStyle=none;html=1;shadow=0;labelBackgroundColor=none;startArrow=none;startFill=0;jettySize=auto;orthogonalLoop=1;strokeColor=#666666;strokeWidth=1;fontFamily=Architects Daughter;fontSize=18;fontColor=#636363;spacing=5;fontStyle=1;fillColor=#f5f5f5;sketch=1;curveFitting=1;jiggle=2;fontSource=https%3A%2F%2Ffonts.googleapis.com%2Fcss%3Ffamily%3DArchitects%2BDaughter;entryX=0;entryY=0;entryDx=0;entryDy=0;exitX=0.852;exitY=1.046;exitDx=0;exitDy=0;exitPerimeter=0;" parent="PmAsDYt7ePFWswJWPdAt-1" source="oxmdE33mIHyCq36yPL5k-18" target="oxmdE33mIHyCq36yPL5k-61" edge="1">
          <mxGeometry relative="1" as="geometry">
            <mxPoint x="957" y="722" as="sourcePoint" />
            <mxPoint x="1067" y="920" as="targetPoint" />
          </mxGeometry>
        </mxCell>
        <mxCell id="oxmdE33mIHyCq36yPL5k-107" value="" style="edgeStyle=none;rounded=1;jumpStyle=none;html=1;shadow=0;labelBackgroundColor=none;startArrow=none;startFill=0;jettySize=auto;orthogonalLoop=1;strokeColor=#666666;strokeWidth=1;fontFamily=Architects Daughter;fontSize=18;fontColor=#636363;spacing=5;fontStyle=1;fillColor=#f5f5f5;sketch=1;curveFitting=1;jiggle=2;fontSource=https%3A%2F%2Ffonts.googleapis.com%2Fcss%3Ffamily%3DArchitects%2BDaughter;entryX=0;entryY=0.5;entryDx=0;entryDy=0;exitX=1;exitY=0.75;exitDx=0;exitDy=0;" parent="PmAsDYt7ePFWswJWPdAt-1" source="oxmdE33mIHyCq36yPL5k-18" target="oxmdE33mIHyCq36yPL5k-62" edge="1">
          <mxGeometry relative="1" as="geometry">
            <mxPoint x="1008" y="722" as="sourcePoint" />
            <mxPoint x="1055" y="818" as="targetPoint" />
          </mxGeometry>
        </mxCell>
        <mxCell id="oxmdE33mIHyCq36yPL5k-108" value="Batch&lt;br style=&quot;font-size: 18px;&quot;&gt;&lt;span style=&quot;font-weight: normal;&quot;&gt;Processing&lt;/span&gt;" style="rounded=1;whiteSpace=wrap;html=1;shadow=0;labelBackgroundColor=none;strokeColor=#6c8ebf;strokeWidth=1;fillColor=none;fontFamily=Architects Daughter;fontSize=18;align=center;spacing=5;fontStyle=1;arcSize=7;perimeterSpacing=2;sketch=1;curveFitting=1;jiggle=2;fontSource=https%3A%2F%2Ffonts.googleapis.com%2Fcss%3Ffamily%3DArchitects%2BDaughter;" parent="PmAsDYt7ePFWswJWPdAt-1" vertex="1">
          <mxGeometry x="1017.13" y="-690" width="155" height="60" as="geometry" />
        </mxCell>
        <mxCell id="oxmdE33mIHyCq36yPL5k-109" value="Stream&lt;br style=&quot;font-size: 18px;&quot;&gt;&lt;span style=&quot;font-weight: normal;&quot;&gt;Processing&lt;/span&gt;" style="rounded=1;whiteSpace=wrap;html=1;shadow=0;labelBackgroundColor=none;strokeColor=#6c8ebf;strokeWidth=1;fillColor=none;fontFamily=Architects Daughter;fontSize=18;align=center;spacing=5;fontStyle=1;arcSize=7;perimeterSpacing=2;sketch=1;curveFitting=1;jiggle=2;fontSource=https%3A%2F%2Ffonts.googleapis.com%2Fcss%3Ffamily%3DArchitects%2BDaughter;" parent="PmAsDYt7ePFWswJWPdAt-1" vertex="1">
          <mxGeometry x="1197.13" y="-690" width="150" height="60" as="geometry" />
        </mxCell>
        <mxCell id="oxmdE33mIHyCq36yPL5k-110" value="" style="edgeStyle=none;rounded=1;jumpStyle=none;html=1;shadow=0;labelBackgroundColor=none;startArrow=none;startFill=0;jettySize=auto;orthogonalLoop=1;strokeColor=#666666;strokeWidth=1;fontFamily=Architects Daughter;fontSize=18;fontColor=#636363;spacing=5;fontStyle=1;fillColor=#f5f5f5;sketch=1;curveFitting=1;jiggle=2;fontSource=https%3A%2F%2Ffonts.googleapis.com%2Fcss%3Ffamily%3DArchitects%2BDaughter;exitX=0.325;exitY=0.029;exitDx=0;exitDy=0;entryX=0.5;entryY=1;entryDx=0;entryDy=0;exitPerimeter=0;" parent="PmAsDYt7ePFWswJWPdAt-1" source="oxmdE33mIHyCq36yPL5k-112" target="oxmdE33mIHyCq36yPL5k-108" edge="1">
          <mxGeometry relative="1" as="geometry">
            <mxPoint x="1167.13" y="-318" as="sourcePoint" />
            <mxPoint x="1061.13" y="-502" as="targetPoint" />
          </mxGeometry>
        </mxCell>
        <mxCell id="oxmdE33mIHyCq36yPL5k-111" value="" style="edgeStyle=none;rounded=1;jumpStyle=none;html=1;shadow=0;labelBackgroundColor=none;startArrow=none;startFill=0;jettySize=auto;orthogonalLoop=1;strokeColor=#666666;strokeWidth=1;fontFamily=Architects Daughter;fontSize=18;fontColor=#636363;spacing=5;fontStyle=1;fillColor=#f5f5f5;sketch=1;curveFitting=1;jiggle=2;fontSource=https%3A%2F%2Ffonts.googleapis.com%2Fcss%3Ffamily%3DArchitects%2BDaughter;exitX=0.686;exitY=-0.002;exitDx=0;exitDy=0;entryX=0.5;entryY=1;entryDx=0;entryDy=0;exitPerimeter=0;" parent="PmAsDYt7ePFWswJWPdAt-1" source="oxmdE33mIHyCq36yPL5k-112" target="oxmdE33mIHyCq36yPL5k-109" edge="1">
          <mxGeometry relative="1" as="geometry">
            <mxPoint x="966.13" y="-534" as="sourcePoint" />
            <mxPoint x="894.13" y="-589" as="targetPoint" />
          </mxGeometry>
        </mxCell>
        <mxCell id="oxmdE33mIHyCq36yPL5k-112" value="Processing&lt;br style=&quot;font-size: 20px;&quot;&gt;&lt;span style=&quot;font-weight: normal;&quot;&gt;Types&lt;/span&gt;" style="rounded=1;whiteSpace=wrap;html=1;shadow=0;labelBackgroundColor=none;strokeColor=#6c8ebf;strokeWidth=3;fillColor=none;fontFamily=Architects Daughter;fontSize=20;align=center;spacing=5;fontStyle=1;arcSize=7;perimeterSpacing=2;sketch=1;curveFitting=1;jiggle=2;fontSource=https%3A%2F%2Ffonts.googleapis.com%2Fcss%3Ffamily%3DArchitects%2BDaughter;" parent="PmAsDYt7ePFWswJWPdAt-1" vertex="1">
          <mxGeometry x="1082.13" y="-533.75" width="180" height="69.5" as="geometry" />
        </mxCell>
        <mxCell id="oxmdE33mIHyCq36yPL5k-113" value="" style="edgeStyle=none;rounded=1;jumpStyle=none;html=1;shadow=0;labelBackgroundColor=none;startArrow=none;startFill=0;jettySize=auto;orthogonalLoop=1;strokeColor=#666666;strokeWidth=2;fontFamily=Architects Daughter;fontSize=18;fontColor=#636363;spacing=5;fontStyle=1;fillColor=#f5f5f5;sketch=1;curveFitting=1;jiggle=2;fontSource=https%3A%2F%2Ffonts.googleapis.com%2Fcss%3Ffamily%3DArchitects%2BDaughter;entryX=0.5;entryY=1;entryDx=0;entryDy=0;exitX=0.5;exitY=0;exitDx=0;exitDy=0;" parent="PmAsDYt7ePFWswJWPdAt-1" source="oxmdE33mIHyCq36yPL5k-91" target="oxmdE33mIHyCq36yPL5k-112" edge="1">
          <mxGeometry relative="1" as="geometry">
            <mxPoint x="1157.13" y="-350" as="sourcePoint" />
            <mxPoint x="1037.13" y="-506" as="targetPoint" />
          </mxGeometry>
        </mxCell>
        <mxCell id="oxmdE33mIHyCq36yPL5k-114" value="Slowly Changing Dimensions&lt;br&gt;&lt;span style=&quot;font-weight: 400;&quot;&gt;(SCD)&lt;/span&gt;" style="rounded=1;whiteSpace=wrap;html=1;shadow=0;labelBackgroundColor=none;strokeColor=#6c8ebf;strokeWidth=3;fillColor=none;fontFamily=Architects Daughter;fontSize=20;align=center;spacing=5;fontStyle=1;arcSize=7;perimeterSpacing=2;sketch=1;curveFitting=1;jiggle=2;fontSource=https%3A%2F%2Ffonts.googleapis.com%2Fcss%3Ffamily%3DArchitects%2BDaughter;" parent="PmAsDYt7ePFWswJWPdAt-1" vertex="1">
          <mxGeometry x="1322.13" y="-128.5" width="275" height="69.5" as="geometry" />
        </mxCell>
        <mxCell id="oxmdE33mIHyCq36yPL5k-115" value="" style="edgeStyle=none;rounded=1;jumpStyle=none;html=1;shadow=0;labelBackgroundColor=none;startArrow=none;startFill=0;jettySize=auto;orthogonalLoop=1;strokeColor=#666666;strokeWidth=2;fontFamily=Architects Daughter;fontSize=18;fontColor=#636363;spacing=5;fontStyle=1;fillColor=#f5f5f5;sketch=1;curveFitting=1;jiggle=2;fontSource=https%3A%2F%2Ffonts.googleapis.com%2Fcss%3Ffamily%3DArchitects%2BDaughter;entryX=0;entryY=0;entryDx=0;entryDy=0;exitX=1;exitY=1;exitDx=0;exitDy=0;" parent="PmAsDYt7ePFWswJWPdAt-1" source="oxmdE33mIHyCq36yPL5k-91" target="oxmdE33mIHyCq36yPL5k-114" edge="1">
          <mxGeometry relative="1" as="geometry">
            <mxPoint x="1317.13" y="-199.5" as="sourcePoint" />
            <mxPoint x="1317.13" y="-325.5" as="targetPoint" />
          </mxGeometry>
        </mxCell>
        <mxCell id="oxmdE33mIHyCq36yPL5k-116" value="SCD 1&amp;nbsp;&lt;br&gt;&lt;span style=&quot;font-weight: normal;&quot;&gt;Overwrite&lt;/span&gt;" style="rounded=1;whiteSpace=wrap;html=1;shadow=0;labelBackgroundColor=none;strokeColor=#6c8ebf;strokeWidth=1;fillColor=none;fontFamily=Architects Daughter;fontSize=18;align=center;spacing=5;fontStyle=1;arcSize=7;perimeterSpacing=2;sketch=1;curveFitting=1;jiggle=2;fontSource=https%3A%2F%2Ffonts.googleapis.com%2Fcss%3Ffamily%3DArchitects%2BDaughter;" parent="PmAsDYt7ePFWswJWPdAt-1" vertex="1">
          <mxGeometry x="1707.13" y="-151.75" width="130" height="60" as="geometry" />
        </mxCell>
        <mxCell id="oxmdE33mIHyCq36yPL5k-117" value="SCD 0&amp;nbsp;&amp;nbsp;&lt;br&gt;&lt;span style=&quot;font-weight: normal;&quot;&gt;No Historization&lt;/span&gt;" style="rounded=1;whiteSpace=wrap;html=1;shadow=0;labelBackgroundColor=none;strokeColor=#6c8ebf;strokeWidth=1;fillColor=none;fontFamily=Architects Daughter;fontSize=18;align=center;spacing=5;fontStyle=1;arcSize=7;perimeterSpacing=2;sketch=1;curveFitting=1;jiggle=2;fontSource=https%3A%2F%2Ffonts.googleapis.com%2Fcss%3Ffamily%3DArchitects%2BDaughter;" parent="PmAsDYt7ePFWswJWPdAt-1" vertex="1">
          <mxGeometry x="1677.13" y="-230" width="150" height="60" as="geometry" />
        </mxCell>
        <mxCell id="oxmdE33mIHyCq36yPL5k-118" value="SCD 2 &lt;br&gt;&lt;span style=&quot;font-weight: normal;&quot;&gt;Historization&lt;/span&gt;" style="rounded=1;whiteSpace=wrap;html=1;shadow=0;labelBackgroundColor=none;strokeColor=#6c8ebf;strokeWidth=1;fillColor=none;fontFamily=Architects Daughter;fontSize=18;align=center;spacing=5;fontStyle=1;arcSize=7;perimeterSpacing=2;sketch=1;curveFitting=1;jiggle=2;fontSource=https%3A%2F%2Ffonts.googleapis.com%2Fcss%3Ffamily%3DArchitects%2BDaughter;" parent="PmAsDYt7ePFWswJWPdAt-1" vertex="1">
          <mxGeometry x="1702.13" y="-79.75" width="125" height="60" as="geometry" />
        </mxCell>
        <mxCell id="oxmdE33mIHyCq36yPL5k-119" value="SCD ...." style="rounded=1;whiteSpace=wrap;html=1;shadow=0;labelBackgroundColor=none;strokeColor=#6c8ebf;strokeWidth=1;fillColor=none;fontFamily=Architects Daughter;fontSize=18;align=center;spacing=5;fontStyle=1;arcSize=7;perimeterSpacing=2;sketch=1;curveFitting=1;jiggle=2;fontSource=https%3A%2F%2Ffonts.googleapis.com%2Fcss%3Ffamily%3DArchitects%2BDaughter;" parent="PmAsDYt7ePFWswJWPdAt-1" vertex="1">
          <mxGeometry x="1677.13" y="10" width="110" height="60" as="geometry" />
        </mxCell>
        <mxCell id="oxmdE33mIHyCq36yPL5k-120" value="" style="edgeStyle=none;rounded=1;jumpStyle=none;html=1;shadow=0;labelBackgroundColor=none;startArrow=none;startFill=0;jettySize=auto;orthogonalLoop=1;strokeColor=#666666;strokeWidth=1;fontFamily=Architects Daughter;fontSize=18;fontColor=#636363;spacing=5;fontStyle=1;fillColor=#f5f5f5;sketch=1;curveFitting=1;jiggle=2;fontSource=https%3A%2F%2Ffonts.googleapis.com%2Fcss%3Ffamily%3DArchitects%2BDaughter;entryX=0;entryY=0.5;entryDx=0;entryDy=0;exitX=0.996;exitY=0.102;exitDx=0;exitDy=0;exitPerimeter=0;" parent="PmAsDYt7ePFWswJWPdAt-1" source="oxmdE33mIHyCq36yPL5k-114" target="oxmdE33mIHyCq36yPL5k-117" edge="1">
          <mxGeometry relative="1" as="geometry">
            <mxPoint x="1587.13" y="-259" as="sourcePoint" />
            <mxPoint x="1652.13" y="-160" as="targetPoint" />
          </mxGeometry>
        </mxCell>
        <mxCell id="oxmdE33mIHyCq36yPL5k-121" value="" style="edgeStyle=none;rounded=1;jumpStyle=none;html=1;shadow=0;labelBackgroundColor=none;startArrow=none;startFill=0;jettySize=auto;orthogonalLoop=1;strokeColor=#666666;strokeWidth=1;fontFamily=Architects Daughter;fontSize=18;fontColor=#636363;spacing=5;fontStyle=1;fillColor=#f5f5f5;sketch=1;curveFitting=1;jiggle=2;fontSource=https%3A%2F%2Ffonts.googleapis.com%2Fcss%3Ffamily%3DArchitects%2BDaughter;entryX=0;entryY=0.5;entryDx=0;entryDy=0;exitX=1;exitY=0.25;exitDx=0;exitDy=0;" parent="PmAsDYt7ePFWswJWPdAt-1" source="oxmdE33mIHyCq36yPL5k-114" target="oxmdE33mIHyCq36yPL5k-116" edge="1">
          <mxGeometry relative="1" as="geometry">
            <mxPoint x="1573.13" y="-94" as="sourcePoint" />
            <mxPoint x="1645.13" y="-160" as="targetPoint" />
          </mxGeometry>
        </mxCell>
        <mxCell id="oxmdE33mIHyCq36yPL5k-122" value="" style="edgeStyle=none;rounded=1;jumpStyle=none;html=1;shadow=0;labelBackgroundColor=none;startArrow=none;startFill=0;jettySize=auto;orthogonalLoop=1;strokeColor=#666666;strokeWidth=1;fontFamily=Architects Daughter;fontSize=18;fontColor=#636363;spacing=5;fontStyle=1;fillColor=#f5f5f5;sketch=1;curveFitting=1;jiggle=2;fontSource=https%3A%2F%2Ffonts.googleapis.com%2Fcss%3Ffamily%3DArchitects%2BDaughter;entryX=0;entryY=0.5;entryDx=0;entryDy=0;exitX=1;exitY=0.5;exitDx=0;exitDy=0;" parent="PmAsDYt7ePFWswJWPdAt-1" source="oxmdE33mIHyCq36yPL5k-114" target="oxmdE33mIHyCq36yPL5k-118" edge="1">
          <mxGeometry relative="1" as="geometry">
            <mxPoint x="1574.13" y="-83" as="sourcePoint" />
            <mxPoint x="1645.13" y="-69" as="targetPoint" />
          </mxGeometry>
        </mxCell>
        <mxCell id="oxmdE33mIHyCq36yPL5k-123" value="" style="edgeStyle=none;rounded=1;jumpStyle=none;html=1;shadow=0;labelBackgroundColor=none;startArrow=none;startFill=0;jettySize=auto;orthogonalLoop=1;strokeColor=#666666;strokeWidth=1;fontFamily=Architects Daughter;fontSize=18;fontColor=#636363;spacing=5;fontStyle=1;fillColor=#f5f5f5;sketch=1;curveFitting=1;jiggle=2;fontSource=https%3A%2F%2Ffonts.googleapis.com%2Fcss%3Ffamily%3DArchitects%2BDaughter;entryX=0;entryY=0;entryDx=0;entryDy=0;exitX=1;exitY=1;exitDx=0;exitDy=0;" parent="PmAsDYt7ePFWswJWPdAt-1" source="oxmdE33mIHyCq36yPL5k-114" target="oxmdE33mIHyCq36yPL5k-119" edge="1">
          <mxGeometry relative="1" as="geometry">
            <mxPoint x="1574.13" y="-65" as="sourcePoint" />
            <mxPoint x="1648.13" y="-7" as="targetPoint" />
          </mxGeometry>
        </mxCell>
        <mxCell id="oxmdE33mIHyCq36yPL5k-124" value="Load &lt;br&gt;&lt;span style=&quot;font-weight: normal;&quot;&gt;Methods&lt;/span&gt;" style="rounded=1;whiteSpace=wrap;html=1;shadow=0;labelBackgroundColor=none;strokeColor=#6c8ebf;strokeWidth=3;fillColor=none;fontFamily=Architects Daughter;fontSize=20;align=center;spacing=5;fontStyle=1;arcSize=7;perimeterSpacing=2;sketch=1;curveFitting=1;jiggle=2;fontSource=https%3A%2F%2Ffonts.googleapis.com%2Fcss%3Ffamily%3DArchitects%2BDaughter;" parent="PmAsDYt7ePFWswJWPdAt-1" vertex="1">
          <mxGeometry x="1357.13" y="-509.5" width="155" height="69.5" as="geometry" />
        </mxCell>
        <mxCell id="oxmdE33mIHyCq36yPL5k-125" value="Incremental&lt;br style=&quot;border-color: var(--border-color);&quot;&gt;&lt;span style=&quot;font-weight: normal;&quot;&gt;Load&lt;/span&gt;" style="rounded=1;whiteSpace=wrap;html=1;shadow=0;labelBackgroundColor=none;strokeColor=#6c8ebf;strokeWidth=1;fillColor=none;fontFamily=Architects Daughter;fontSize=18;align=center;spacing=5;fontStyle=1;arcSize=7;perimeterSpacing=2;sketch=1;curveFitting=1;jiggle=2;fontSource=https%3A%2F%2Ffonts.googleapis.com%2Fcss%3Ffamily%3DArchitects%2BDaughter;" parent="PmAsDYt7ePFWswJWPdAt-1" vertex="1">
          <mxGeometry x="1547.13" y="-408" width="140" height="60" as="geometry" />
        </mxCell>
        <mxCell id="oxmdE33mIHyCq36yPL5k-126" value="Full &lt;br&gt;&lt;span style=&quot;font-weight: normal;&quot;&gt;Load&lt;/span&gt;" style="rounded=1;whiteSpace=wrap;html=1;shadow=0;labelBackgroundColor=none;strokeColor=#6c8ebf;strokeWidth=1;fillColor=none;fontFamily=Architects Daughter;fontSize=18;align=center;spacing=5;fontStyle=1;arcSize=7;perimeterSpacing=2;sketch=1;curveFitting=1;jiggle=2;fontSource=https%3A%2F%2Ffonts.googleapis.com%2Fcss%3Ffamily%3DArchitects%2BDaughter;" parent="PmAsDYt7ePFWswJWPdAt-1" vertex="1">
          <mxGeometry x="1547.13" y="-598.75" width="120" height="60" as="geometry" />
        </mxCell>
        <mxCell id="oxmdE33mIHyCq36yPL5k-130" value="" style="edgeStyle=none;rounded=1;jumpStyle=none;html=1;shadow=0;labelBackgroundColor=none;startArrow=none;startFill=0;jettySize=auto;orthogonalLoop=1;strokeColor=#666666;strokeWidth=1;fontFamily=Architects Daughter;fontSize=18;fontColor=#636363;spacing=5;fontStyle=1;fillColor=#f5f5f5;sketch=1;curveFitting=1;jiggle=2;fontSource=https%3A%2F%2Ffonts.googleapis.com%2Fcss%3Ffamily%3DArchitects%2BDaughter;entryX=0;entryY=0.5;entryDx=0;entryDy=0;exitX=1;exitY=1;exitDx=0;exitDy=0;" parent="PmAsDYt7ePFWswJWPdAt-1" source="oxmdE33mIHyCq36yPL5k-124" target="oxmdE33mIHyCq36yPL5k-125" edge="1">
          <mxGeometry relative="1" as="geometry">
            <mxPoint x="1573.13" y="-473" as="sourcePoint" />
            <mxPoint x="1645.13" y="-539" as="targetPoint" />
          </mxGeometry>
        </mxCell>
        <mxCell id="oxmdE33mIHyCq36yPL5k-133" value="" style="edgeStyle=none;rounded=1;jumpStyle=none;html=1;shadow=0;labelBackgroundColor=none;startArrow=none;startFill=0;jettySize=auto;orthogonalLoop=1;strokeColor=#666666;strokeWidth=1;fontFamily=Architects Daughter;fontSize=18;fontColor=#636363;spacing=5;fontStyle=1;fillColor=#f5f5f5;sketch=1;curveFitting=1;jiggle=2;fontSource=https%3A%2F%2Ffonts.googleapis.com%2Fcss%3Ffamily%3DArchitects%2BDaughter;entryX=0;entryY=0.5;entryDx=0;entryDy=0;exitX=1;exitY=0;exitDx=0;exitDy=0;" parent="PmAsDYt7ePFWswJWPdAt-1" source="oxmdE33mIHyCq36yPL5k-124" target="oxmdE33mIHyCq36yPL5k-126" edge="1">
          <mxGeometry relative="1" as="geometry">
            <mxPoint x="1474.13" y="-420.5" as="sourcePoint" />
            <mxPoint x="1545.13" y="-393.5" as="targetPoint" />
          </mxGeometry>
        </mxCell>
        <mxCell id="oxmdE33mIHyCq36yPL5k-134" value="" style="edgeStyle=none;rounded=1;jumpStyle=none;html=1;shadow=0;labelBackgroundColor=none;startArrow=none;startFill=0;jettySize=auto;orthogonalLoop=1;strokeColor=#666666;strokeWidth=2;fontFamily=Architects Daughter;fontSize=18;fontColor=#636363;spacing=5;fontStyle=1;fillColor=#f5f5f5;sketch=1;curveFitting=1;jiggle=2;fontSource=https%3A%2F%2Ffonts.googleapis.com%2Fcss%3Ffamily%3DArchitects%2BDaughter;entryX=0;entryY=0.5;entryDx=0;entryDy=0;exitX=0.957;exitY=0.282;exitDx=0;exitDy=0;exitPerimeter=0;" parent="PmAsDYt7ePFWswJWPdAt-1" source="oxmdE33mIHyCq36yPL5k-91" target="oxmdE33mIHyCq36yPL5k-124" edge="1">
          <mxGeometry relative="1" as="geometry">
            <mxPoint x="1182.13" y="-336" as="sourcePoint" />
            <mxPoint x="1182.13" y="-452" as="targetPoint" />
          </mxGeometry>
        </mxCell>
        <mxCell id="oxmdE33mIHyCq36yPL5k-136" value="Truncate &amp;amp; Insert" style="rounded=1;whiteSpace=wrap;html=1;shadow=0;labelBackgroundColor=none;strokeColor=#6c8ebf;strokeWidth=1;fillColor=none;fontFamily=Architects Daughter;fontSize=18;align=center;spacing=5;fontStyle=0;arcSize=7;perimeterSpacing=2;sketch=1;curveFitting=1;jiggle=2;fontSource=https%3A%2F%2Ffonts.googleapis.com%2Fcss%3Ffamily%3DArchitects%2BDaughter;" parent="PmAsDYt7ePFWswJWPdAt-1" vertex="1">
          <mxGeometry x="1707.13" y="-641.5" width="180" height="35.5" as="geometry" />
        </mxCell>
        <mxCell id="oxmdE33mIHyCq36yPL5k-137" value="Upsert" style="rounded=1;whiteSpace=wrap;html=1;shadow=0;labelBackgroundColor=none;strokeColor=#6c8ebf;strokeWidth=1;fillColor=none;fontFamily=Architects Daughter;fontSize=18;align=center;spacing=5;fontStyle=0;arcSize=7;perimeterSpacing=2;sketch=1;curveFitting=1;jiggle=2;fontSource=https%3A%2F%2Ffonts.googleapis.com%2Fcss%3Ffamily%3DArchitects%2BDaughter;" parent="PmAsDYt7ePFWswJWPdAt-1" vertex="1">
          <mxGeometry x="1707.13" y="-596.5" width="180" height="35.5" as="geometry" />
        </mxCell>
        <mxCell id="oxmdE33mIHyCq36yPL5k-138" value="Drop, Create, Insert" style="rounded=1;whiteSpace=wrap;html=1;shadow=0;labelBackgroundColor=none;strokeColor=#6c8ebf;strokeWidth=1;fillColor=none;fontFamily=Architects Daughter;fontSize=18;align=center;spacing=5;fontStyle=0;arcSize=7;perimeterSpacing=2;sketch=1;curveFitting=1;jiggle=2;fontSource=https%3A%2F%2Ffonts.googleapis.com%2Fcss%3Ffamily%3DArchitects%2BDaughter;" parent="PmAsDYt7ePFWswJWPdAt-1" vertex="1">
          <mxGeometry x="1707.13" y="-545.5" width="180" height="35.5" as="geometry" />
        </mxCell>
        <mxCell id="oxmdE33mIHyCq36yPL5k-139" value="Upsert" style="rounded=1;whiteSpace=wrap;html=1;shadow=0;labelBackgroundColor=none;strokeColor=#6c8ebf;strokeWidth=1;fillColor=none;fontFamily=Architects Daughter;fontSize=18;align=center;spacing=5;fontStyle=0;arcSize=7;perimeterSpacing=2;sketch=1;curveFitting=1;jiggle=2;fontSource=https%3A%2F%2Ffonts.googleapis.com%2Fcss%3Ffamily%3DArchitects%2BDaughter;" parent="PmAsDYt7ePFWswJWPdAt-1" vertex="1">
          <mxGeometry x="1727.13" y="-440" width="120" height="35.5" as="geometry" />
        </mxCell>
        <mxCell id="oxmdE33mIHyCq36yPL5k-140" value="Append" style="rounded=1;whiteSpace=wrap;html=1;shadow=0;labelBackgroundColor=none;strokeColor=#6c8ebf;strokeWidth=1;fillColor=none;fontFamily=Architects Daughter;fontSize=18;align=center;spacing=5;fontStyle=0;arcSize=7;perimeterSpacing=2;sketch=1;curveFitting=1;jiggle=2;fontSource=https%3A%2F%2Ffonts.googleapis.com%2Fcss%3Ffamily%3DArchitects%2BDaughter;" parent="PmAsDYt7ePFWswJWPdAt-1" vertex="1">
          <mxGeometry x="1727.13" y="-395" width="120" height="35.5" as="geometry" />
        </mxCell>
        <mxCell id="oxmdE33mIHyCq36yPL5k-141" value="Merge" style="rounded=1;whiteSpace=wrap;html=1;shadow=0;labelBackgroundColor=none;strokeColor=#6c8ebf;strokeWidth=1;fillColor=none;fontFamily=Architects Daughter;fontSize=18;align=center;spacing=5;fontStyle=0;arcSize=7;perimeterSpacing=2;sketch=1;curveFitting=1;jiggle=2;fontSource=https%3A%2F%2Ffonts.googleapis.com%2Fcss%3Ffamily%3DArchitects%2BDaughter;" parent="PmAsDYt7ePFWswJWPdAt-1" vertex="1">
          <mxGeometry x="1727.13" y="-349" width="120" height="35.5" as="geometry" />
        </mxCell>
        <mxCell id="oxmdE33mIHyCq36yPL5k-142" value="" style="edgeStyle=none;rounded=1;jumpStyle=none;html=1;shadow=0;labelBackgroundColor=none;startArrow=none;startFill=0;jettySize=auto;orthogonalLoop=1;strokeColor=#666666;strokeWidth=1;fontFamily=Architects Daughter;fontSize=18;fontColor=#636363;spacing=5;fontStyle=1;fillColor=#f5f5f5;sketch=1;curveFitting=1;jiggle=2;fontSource=https%3A%2F%2Ffonts.googleapis.com%2Fcss%3Ffamily%3DArchitects%2BDaughter;entryX=0;entryY=0.5;entryDx=0;entryDy=0;exitX=1;exitY=0.25;exitDx=0;exitDy=0;" parent="PmAsDYt7ePFWswJWPdAt-1" source="oxmdE33mIHyCq36yPL5k-125" target="oxmdE33mIHyCq36yPL5k-139" edge="1">
          <mxGeometry relative="1" as="geometry">
            <mxPoint x="1474.13" y="-383" as="sourcePoint" />
            <mxPoint x="1535.13" y="-351" as="targetPoint" />
          </mxGeometry>
        </mxCell>
        <mxCell id="oxmdE33mIHyCq36yPL5k-143" value="" style="edgeStyle=none;rounded=1;jumpStyle=none;html=1;shadow=0;labelBackgroundColor=none;startArrow=none;startFill=0;jettySize=auto;orthogonalLoop=1;strokeColor=#666666;strokeWidth=1;fontFamily=Architects Daughter;fontSize=18;fontColor=#636363;spacing=5;fontStyle=1;fillColor=#f5f5f5;sketch=1;curveFitting=1;jiggle=2;fontSource=https%3A%2F%2Ffonts.googleapis.com%2Fcss%3Ffamily%3DArchitects%2BDaughter;entryX=0;entryY=0.5;entryDx=0;entryDy=0;exitX=1;exitY=0.5;exitDx=0;exitDy=0;" parent="PmAsDYt7ePFWswJWPdAt-1" source="oxmdE33mIHyCq36yPL5k-125" target="oxmdE33mIHyCq36yPL5k-140" edge="1">
          <mxGeometry relative="1" as="geometry">
            <mxPoint x="1679.13" y="-351" as="sourcePoint" />
            <mxPoint x="1740.13" y="-383" as="targetPoint" />
          </mxGeometry>
        </mxCell>
        <mxCell id="oxmdE33mIHyCq36yPL5k-144" value="" style="edgeStyle=none;rounded=1;jumpStyle=none;html=1;shadow=0;labelBackgroundColor=none;startArrow=none;startFill=0;jettySize=auto;orthogonalLoop=1;strokeColor=#666666;strokeWidth=1;fontFamily=Architects Daughter;fontSize=18;fontColor=#636363;spacing=5;fontStyle=1;fillColor=#f5f5f5;sketch=1;curveFitting=1;jiggle=2;fontSource=https%3A%2F%2Ffonts.googleapis.com%2Fcss%3Ffamily%3DArchitects%2BDaughter;entryX=0;entryY=0.5;entryDx=0;entryDy=0;exitX=1;exitY=0.75;exitDx=0;exitDy=0;" parent="PmAsDYt7ePFWswJWPdAt-1" source="oxmdE33mIHyCq36yPL5k-125" target="oxmdE33mIHyCq36yPL5k-141" edge="1">
          <mxGeometry relative="1" as="geometry">
            <mxPoint x="1679.13" y="-368" as="sourcePoint" />
            <mxPoint x="1740.13" y="-383" as="targetPoint" />
          </mxGeometry>
        </mxCell>
        <mxCell id="oxmdE33mIHyCq36yPL5k-145" value="" style="edgeStyle=none;rounded=1;jumpStyle=none;html=1;shadow=0;labelBackgroundColor=none;startArrow=none;startFill=0;jettySize=auto;orthogonalLoop=1;strokeColor=#666666;strokeWidth=1;fontFamily=Architects Daughter;fontSize=18;fontColor=#636363;spacing=5;fontStyle=1;fillColor=#f5f5f5;sketch=1;curveFitting=1;jiggle=2;fontSource=https%3A%2F%2Ffonts.googleapis.com%2Fcss%3Ffamily%3DArchitects%2BDaughter;entryX=0;entryY=0.5;entryDx=0;entryDy=0;exitX=1;exitY=0.25;exitDx=0;exitDy=0;" parent="PmAsDYt7ePFWswJWPdAt-1" source="oxmdE33mIHyCq36yPL5k-126" target="oxmdE33mIHyCq36yPL5k-136" edge="1">
          <mxGeometry relative="1" as="geometry">
            <mxPoint x="1662.13" y="-647" as="sourcePoint" />
            <mxPoint x="1723.13" y="-675" as="targetPoint" />
          </mxGeometry>
        </mxCell>
        <mxCell id="oxmdE33mIHyCq36yPL5k-146" value="" style="edgeStyle=none;rounded=1;jumpStyle=none;html=1;shadow=0;labelBackgroundColor=none;startArrow=none;startFill=0;jettySize=auto;orthogonalLoop=1;strokeColor=#666666;strokeWidth=1;fontFamily=Architects Daughter;fontSize=18;fontColor=#636363;spacing=5;fontStyle=1;fillColor=#f5f5f5;sketch=1;curveFitting=1;jiggle=2;fontSource=https%3A%2F%2Ffonts.googleapis.com%2Fcss%3Ffamily%3DArchitects%2BDaughter;entryX=0;entryY=0.5;entryDx=0;entryDy=0;exitX=1;exitY=0.5;exitDx=0;exitDy=0;" parent="PmAsDYt7ePFWswJWPdAt-1" source="oxmdE33mIHyCq36yPL5k-126" target="oxmdE33mIHyCq36yPL5k-137" edge="1">
          <mxGeometry relative="1" as="geometry">
            <mxPoint x="1679.13" y="-575" as="sourcePoint" />
            <mxPoint x="1730.13" y="-613" as="targetPoint" />
          </mxGeometry>
        </mxCell>
        <mxCell id="oxmdE33mIHyCq36yPL5k-147" value="" style="edgeStyle=none;rounded=1;jumpStyle=none;html=1;shadow=0;labelBackgroundColor=none;startArrow=none;startFill=0;jettySize=auto;orthogonalLoop=1;strokeColor=#666666;strokeWidth=1;fontFamily=Architects Daughter;fontSize=18;fontColor=#636363;spacing=5;fontStyle=1;fillColor=#f5f5f5;sketch=1;curveFitting=1;jiggle=2;fontSource=https%3A%2F%2Ffonts.googleapis.com%2Fcss%3Ffamily%3DArchitects%2BDaughter;entryX=0;entryY=0.5;entryDx=0;entryDy=0;exitX=1;exitY=0.75;exitDx=0;exitDy=0;" parent="PmAsDYt7ePFWswJWPdAt-1" source="oxmdE33mIHyCq36yPL5k-126" target="oxmdE33mIHyCq36yPL5k-138" edge="1">
          <mxGeometry relative="1" as="geometry">
            <mxPoint x="1679.13" y="-559" as="sourcePoint" />
            <mxPoint x="1730.13" y="-568" as="targetPoint" />
          </mxGeometry>
        </mxCell>
        <mxCell id="e5i4owUY1bQV838UfsxI-0" value="Handling&lt;br&gt;unwanted spaces" style="rounded=1;whiteSpace=wrap;html=1;shadow=0;labelBackgroundColor=none;strokeColor=#b85450;strokeWidth=1;fillColor=default;fontFamily=Architects Daughter;fontSize=18;align=center;spacing=5;arcSize=7;perimeterSpacing=2;sketch=1;curveFitting=1;jiggle=2;fontSource=https%3A%2F%2Ffonts.googleapis.com%2Fcss%3Ffamily%3DArchitects%2BDaughter;fontStyle=1" parent="PmAsDYt7ePFWswJWPdAt-1" vertex="1">
          <mxGeometry x="1067" y="820" width="155" height="60" as="geometry" />
        </mxCell>
        <mxCell id="e5i4owUY1bQV838UfsxI-1" value="" style="edgeStyle=none;rounded=1;jumpStyle=none;html=1;shadow=0;labelBackgroundColor=none;startArrow=none;startFill=0;jettySize=auto;orthogonalLoop=1;strokeColor=#666666;strokeWidth=1;fontFamily=Architects Daughter;fontSize=18;fontColor=#636363;spacing=5;fontStyle=1;fillColor=#f5f5f5;sketch=1;curveFitting=1;jiggle=2;fontSource=https%3A%2F%2Ffonts.googleapis.com%2Fcss%3Ffamily%3DArchitects%2BDaughter;exitX=0.647;exitY=0.976;exitDx=0;exitDy=0;exitPerimeter=0;" parent="PmAsDYt7ePFWswJWPdAt-1" source="oxmdE33mIHyCq36yPL5k-18" target="e5i4owUY1bQV838UfsxI-0" edge="1">
          <mxGeometry relative="1" as="geometry">
            <mxPoint x="929" y="722" as="sourcePoint" />
            <mxPoint x="837" y="858" as="targetPoint" />
          </mxGeometry>
        </mxCell>
      </root>
    </mxGraphModel>
  </diagram>
</mxfile>
